HIERARCHY
ROOT Hips
{
	OFFSET	0.00	0.00	0.00
	CHANNELS 6 Xposition Yposition Zposition Zrotation Xrotation Yrotation
	JOINT LeftUpLeg
	{
		OFFSET	 0.126116	-0.065224	 0.014019
		CHANNELS 3 Zrotation Xrotation Yrotation
		JOINT LeftLeg
		{
			OFFSET	 0.000000	 0.569914	 0.000000
			CHANNELS 3 Zrotation Xrotation Yrotation
			JOINT LeftFoot
			{
				OFFSET	 0.000000	 0.544423	 0.000000
				CHANNELS 3 Zrotation Xrotation Yrotation
				JOINT LeftToeBase
				{
					OFFSET	 0.000000	 0.207117	 0.000000
					CHANNELS 3 Zrotation Xrotation Yrotation
					End Site
					{
						OFFSET	 0.000000	 0.207117	 0.000000
					}
				}
			}
		}
	}
	JOINT RightUpLeg
	{
		OFFSET	-0.124023	-0.065224	 0.008373
		CHANNELS 3 Zrotation Xrotation Yrotation
		JOINT RightLeg
		{
			OFFSET	 0.000000	 0.570047	 0.000000
			CHANNELS 3 Zrotation Xrotation Yrotation
			JOINT RightFoot
			{
				OFFSET	 0.000000	 0.544354	 0.000000
				CHANNELS 3 Zrotation Xrotation Yrotation
				JOINT RightToeBase
				{
					OFFSET	 0.000000	 0.207540	 0.000000
					CHANNELS 3 Zrotation Xrotation Yrotation
					End Site
					{
						OFFSET	 0.000000	 0.207540	 0.000000
					}
				}
			}
		}
	}
	JOINT Spine
	{
		OFFSET	 0.000184	 0.117403	 0.007763
		CHANNELS 3 Zrotation Xrotation Yrotation
		JOINT Spine1
		{
			OFFSET	 0.000000	 0.137269	 0.000000
			CHANNELS 3 Zrotation Xrotation Yrotation
			JOINT Spine2
			{
				OFFSET	 0.000000	 0.156879	 0.000000
				CHANNELS 3 Zrotation Xrotation Yrotation
				JOINT LeftShoulder
				{
					OFFSET	 0.080501	 0.160143	 0.002496
					CHANNELS 3 Zrotation Xrotation Yrotation
					JOINT LeftArm
					{
						OFFSET	 0.000000	 0.164363	 0.000000
						CHANNELS 3 Zrotation Xrotation Yrotation
						JOINT LeftForeArm
						{
							OFFSET	 0.000000	 0.364576	 0.000000
							CHANNELS 3 Zrotation Xrotation Yrotation
							JOINT LeftHand
							{
								OFFSET	 0.000000	 0.360812	 0.000000
								CHANNELS 3 Zrotation Xrotation Yrotation
								JOINT LeftHandIndex1
								{
									OFFSET	 0.000000	 0.086006	 0.000000
									CHANNELS 3 Zrotation Xrotation Yrotation
									JOINT LeftHandIndex2
									{
										OFFSET	 0.000000	 0.047237	 0.000000
										CHANNELS 3 Zrotation Xrotation Yrotation
										JOINT LeftHandIndex3
										{
											OFFSET	-0.004284	 0.038165	 0.000551
											CHANNELS 3 Zrotation Xrotation Yrotation
											End Site
											{
												OFFSET	-0.004284	 0.038165	 0.000551
											}
										}
									}
								}
							}
						}
					}
				}
				JOINT Neck
				{
					OFFSET	 0.000000	 0.176489	 0.000000
					CHANNELS 3 Zrotation Xrotation Yrotation
					JOINT Head
					{
						OFFSET	 0.000000	 0.077941	 0.001747
						CHANNELS 3 Zrotation Xrotation Yrotation
						End Site
						{
							OFFSET	 0.000000	 0.077941	 0.001747
						}
					}
				}
				JOINT RightShoulder
				{
					OFFSET	-0.080363	 0.159706	-0.000306
					CHANNELS 3 Zrotation Xrotation Yrotation
					JOINT RightArm
					{
						OFFSET	 0.000000	 0.164196	 0.000000
						CHANNELS 3 Zrotation Xrotation Yrotation
						JOINT RightForeArm
						{
							OFFSET	 0.000000	 0.365611	 0.000000
							CHANNELS 3 Zrotation Xrotation Yrotation
							JOINT RightHand
							{
								OFFSET	 0.000000	 0.360648	 0.000000
								CHANNELS 3 Zrotation Xrotation Yrotation
								JOINT RightHandIndex1
								{
									OFFSET	 0.000000	 0.069977	 0.000000
									CHANNELS 3 Zrotation Xrotation Yrotation
									JOINT RightHandIndex2
									{
										OFFSET	 0.000000	 0.052305	 0.000000
										CHANNELS 3 Zrotation Xrotation Yrotation
										JOINT RightHandIndex3
										{
											OFFSET	 0.009002	 0.042196	 0.000782
											CHANNELS 3 Zrotation Xrotation Yrotation
											End Site
											{
												OFFSET	 0.009002	 0.042196	 0.000782
											}
										}
									}
								}
							}
						}
					}
				}
			}
		}
	}
}
MOTION
Frames:    10
Frame Time: 0.03333334
-0.047967	 1.234704	-1.246944	-2.377105	 1.305476	-174.253900	 175.862200	 8.571022	-16.139540	 4.483976	-30.503980	 6.177196	 9.559727	 81.087750	-2.128556	 1.513123	 31.250720	-2.812055	 168.425900	 27.288420	 20.509040	-5.705186	-52.879140	 6.390793	 4.318902	 69.927700	-3.605866	-1.668895	 33.141660	 2.886367	-1.483418	 8.969326	-12.739080	 4.790649	 2.462690	-5.812451	-4.948485	-2.280050	 14.178470	-121.358600	 7.433944	 94.040680	 43.342120	 31.498870	-22.522370	 4.694010	-0.241462	-0.138184	-20.134080	-21.083520	-24.948090	 4.625522	 18.860940	-1.655684	-5.863941	 21.474710	 2.374097	 5.331695	 4.343908	-0.168968	-0.168562	-5.010471	-0.143822	-2.157525	-2.550499	 0.612156	 118.422400	-0.019442	-90.823460	 19.704620	 52.320290	-21.574000	-24.736670	-0.942474	-0.084011	-5.618150	-1.232361	-47.450100	-2.433267	 25.956200	 1.333747	 15.845820	 44.945950	-11.829720	-8.529156	 23.954060	-1.225247
-0.047972	 1.234402	-1.249198	-2.378502	 1.246964	-174.196600	 176.224700	 8.492067	-17.522340	 4.519804	-30.569930	 6.283210	 10.302730	 81.331470	-2.850882	 1.516911	 31.297840	-2.813838	 167.643600	 27.421990	 22.270920	-5.724187	-52.889740	 6.417197	 4.105343	 70.682140	-3.508417	-1.670548	 33.161420	 2.887194	-1.400414	 8.793694	-13.206440	 4.789075	 2.887310	-5.850667	-4.924370	-2.908975	 14.132090	-121.357300	 7.481125	 94.064100	 42.903420	 31.347990	-21.995920	 4.795765	-0.241585	-0.428938	-19.353430	-21.669960	-25.496250	 4.631613	 18.880930	-1.658932	-5.863887	 21.492270	 2.376034	 5.332448	 4.361567	-0.168647	-0.169425	-5.014482	-0.139855	-2.145086	-2.644647	 0.595258	 118.415900	-0.047255	-90.810400	 19.746940	 52.168900	-21.493630	-24.171420	-0.918191	 0.216355	-6.555236	-1.141482	-46.899770	-2.411130	 25.791910	 1.321872	 15.804130	 44.785660	-11.765620	-8.529789	 23.789140	-1.214250
-0.047949	 1.233968	-1.252689	-2.385762	 1.167540	-174.121200	 176.584800	 8.365789	-18.794650	 4.504944	-30.650390	 6.305169	 11.210460	 81.621430	-3.763546	 1.521943	 31.360370	-2.816211	 166.804700	 27.702330	 24.116290	-5.748907	-52.892520	 6.452927	 3.952998	 71.611400	-3.465526	-1.672743	 33.187650	 2.888293	-1.296157	 8.606109	-13.813110	 4.774613	 3.315196	-5.879286	-4.887498	-3.546516	 14.042630	-121.355700	 7.543713	 94.095180	 42.518610	 31.122070	-21.454670	 4.928519	-0.241555	-0.814658	-18.503090	-22.390250	-26.116450	 4.639699	 18.907450	-1.663247	-5.863816	 21.515570	 2.378606	 5.333449	 4.385000	-0.168221	-0.170570	-5.019804	-0.134590	-2.127966	-2.742924	 0.567479	 118.407200	-0.084146	-90.793110	 19.782330	 52.052430	-21.386830	-23.515870	-0.889319	 0.613134	-7.533248	-1.153881	-46.159710	-2.381856	 25.573860	 1.306246	 15.749370	 44.572900	-11.681080	-8.530575	 23.570260	-1.199679
-0.047201	 1.229077	-1.296775	-2.497751	 0.518294	-173.538300	 178.276700	 6.418381	-24.564080	 4.533285	-30.807870	 6.884064	 18.933300	 83.891160	-12.243170	 1.561934	 31.854440	-2.835244	 162.064200	 31.892220	 33.758460	-5.452047	-51.641740	 7.287373	 1.703713	 76.539600	-2.603556	-1.690127	 33.394860	 2.897028	-0.607847	 7.545352	-18.469340	 4.548465	 5.532808	-5.932307	-4.547991	-6.728712	 13.030180	-121.344100	 8.038260	 94.340860	 42.010580	 28.379820	-19.280510	 5.971049	-0.241140	-3.859119	-13.867960	-26.939930	-29.596460	 4.703705	 19.116950	-1.697497	-5.863295	 21.699640	 2.398937	 5.341349	 4.570147	-0.164873	-0.179599	-5.061858	-0.092997	-1.986827	-3.256866	 0.288432	 118.338900	-0.375908	-90.656390	 18.832600	 52.364040	-19.768910	-17.133390	-0.612827	 3.749764	-14.064530	-2.750411	-40.356570	-2.154534	 23.850120	 1.187970	 15.338330	 42.889150	-11.032980	-8.534644	 21.840180	-1.085428
-0.044610	 1.217832	-1.401447	-2.760677	-0.587585	-172.598200	 179.464800	 0.787053	-28.061410	 4.154410	-28.659250	 7.623376	 41.910680	 86.669100	-37.983000	 1.628005	 32.659770	-2.867371	 159.513400	 38.335250	 41.521860	-3.500120	-39.073600	 9.979591	-3.920313	 77.379650	-1.832983	-1.718634	 33.732610	 2.911472	 0.107373	 6.166475	-25.710250	 4.081656	 8.142207	-5.871368	-3.954333	-10.217410	 10.922040	-121.329800	 8.844483	 94.741760	 43.911520	 22.518300	-17.912770	 7.615087	-0.238135	-8.784626	-7.317641	-32.000520	-33.429880	 4.808494	 19.458360	-1.753951	-5.862595	 21.999670	 2.432129	 5.354209	 4.871932	-0.159467	-0.194252	-5.130415	-0.025210	-1.750437	-3.847567	-0.257707	 118.229100	-0.851791	-90.434330	 18.785460	 53.701030	-18.397660	-8.133857	-0.201018	 8.761797	-22.446830	-6.538834	-31.080820	-1.797981	 21.038460	 1.013916	 14.743960	 40.136890	-10.045410	-8.533361	 19.019040	-0.902112
-0.042349	 1.209778	-1.469027	-2.955769	-1.354314	-171.945000	 179.381000	-2.753575	-26.930680	 3.798436	-26.555910	 8.118788	 66.251230	 87.137480	-64.085080	 1.675284	 33.227630	-2.890869	 162.792800	 38.329890	 39.990130	-1.854291	-23.283610	 12.316070	 4.154467	 76.159160	-11.872630	-1.738867	 33.970770	 2.921814	 0.370852	 5.311747	-30.381720	 3.742235	 9.308202	-5.645188	-3.566376	-12.023880	 9.184937	-121.323100	 9.413056	 95.024890	 44.958400	 19.855090	-16.561760	 8.765130	-0.236378	-12.206500	-1.161127	-35.437760	-35.878700	 4.882738	 19.699050	-1.794232	-5.862215	 22.211260	 2.455575	 5.363264	 5.084748	-0.155695	-0.204537	-5.178773	 0.022587	-1.581026	-4.199660	-0.688450	 118.152800	-1.187660	-90.278240	 23.930170	 53.776320	-21.478950	-9.291237	-0.199795	 12.184270	-23.079280	-8.814638	-24.380290	-1.555902	 19.055850	 0.904216	 14.375120	 38.192450	-9.394083	-8.526795	 17.030320	-0.774615
-0.040947	 1.206020	-1.496796	-2.949348	-1.508310	-171.732000	 179.562900	-4.176602	-26.508060	 3.717220	-26.064560	 8.014845	 65.555420	 87.355000	-64.137060	 1.770931	 34.355110	-2.939672	 165.124200	 36.875320	 38.397560	-1.205783	-15.634470	 12.811570	 4.056412	 73.600470	-12.932240	-1.750685	 34.109310	 2.927890	 0.533891	 5.036585	-32.244830	 3.605617	 9.730304	-5.506750	-3.399601	-12.656190	 8.447791	-121.306300	 9.551261	 95.092150	 45.214120	 19.133480	-16.356190	 9.236605	-0.235926	-13.592450	 1.309789	-36.315650	-36.782570	 4.929975	 19.787800	-1.816101	-5.862043	 22.328920	 2.468630	 5.369145	 5.223112	-0.153263	-0.204473	-5.190851	 0.037124	-1.530604	-4.270669	-0.808995	 118.170200	-1.296975	-90.228550	 25.657270	 53.610450	-22.380280	-9.768687	-0.199605	 13.570530	-23.371340	-9.653125	-21.640180	-1.492092	 18.164380	 0.877286	 14.224470	 37.334520	-9.117466	-8.522496	 16.159930	-0.719158
-0.012652	 1.176132	-1.833141	-0.539879	 0.525056	-168.630400	-171.479700	-15.695940	-21.695810	 5.089675	-33.794850	 3.538899	-28.277050	 61.868380	 21.472330	 8.055200	 70.201270	-6.666147	 169.901400	 34.261440	 33.816360	-2.269273	-27.770490	 10.732380	-17.985220	 63.469660	 2.128270	-1.797874	 34.658140	 2.952399	 3.668275	 2.278486	-47.880460	 2.067400	 10.679140	-3.051566	-1.229723	-15.000400	-0.709595	-120.996800	 8.979822	 94.774870	 41.374700	 22.297660	-14.859800	 14.385770	-0.240220	-28.146120	 20.188090	-27.696290	-46.448450	 5.246715	 20.823870	-1.995239	-5.863724	 24.370860	 2.697010	 5.485147	 7.972695	-0.107793	-0.110050	-5.149664	 0.065859	-1.785149	-2.777758	-1.600644	 119.431100	-2.419958	-89.729120	 42.211610	 45.682240	-29.786990	-26.211580	-0.617320	 27.971770	-18.666610	-12.233740	 12.708700	-1.619456	 9.103966	 0.936591	 13.075100	 28.943760	-6.686544	-8.439287	 7.847127	-0.194164
-0.011120	 1.178646	-1.857156	-0.418940	 0.919479	-169.303100	-170.726800	-14.290270	-22.865970	 5.780646	-37.230690	 5.135429	-27.718640	 62.692040	 20.733310	 6.524878	 65.842090	-5.413198	 170.563400	 33.517500	 33.343680	-2.405843	-29.172920	 9.458683	-20.188620	 64.041450	 5.057803	-1.756465	 34.176920	 2.930871	 3.917271	 2.355214	-47.533840	 1.778540	 10.753960	-2.567639	-0.950162	-15.033390	-1.805659	-120.894900	 8.795031	 94.673870	 40.624200	 23.502360	-14.856860	 15.035920	-0.241843	-29.912380	 20.119700	-24.420480	-46.032650	 5.208512	 21.225740	-2.009082	-5.864950	 24.730120	 2.737576	 5.505148	 8.450315	-0.100437	-0.086205	-5.116412	 0.031683	-1.793951	-2.768860	-2.017281	 119.501900	-2.202796	-89.832530	 42.166560	 45.140010	-30.062430	-28.826810	-0.685025	 29.697660	-18.442580	-12.502000	 19.095970	-1.713910	 10.125610	 0.980041	 13.182440	 29.920940	-6.948229	-8.450071	 8.611739	-0.242422
-0.009362	 1.182612	-1.889750	-0.305442	 1.288969	-169.918500	-169.724500	-11.905880	-24.027550	 6.869891	-42.064350	 6.660181	-28.139980	 63.811850	 21.274850	 5.483795	 61.790850	-4.633399	 171.119300	 32.490310	 33.063010	-2.588885	-30.993600	 8.283978	-22.188790	 65.318620	 8.045289	-1.718462	 33.730580	 2.911385	 4.148012	 2.454977	-46.887940	 1.459662	 10.729470	-2.046637	-0.676459	-14.973100	-2.782068	-120.800700	 8.623514	 94.580570	 39.463720	 25.125650	-14.582600	 15.633150	-0.243985	-31.495720	 20.502180	-21.570660	-45.218060	 5.173081	 21.598470	-2.021696	-5.866342	 25.063320	 2.775310	 5.523666	 8.893301	-0.093758	-0.064075	-5.085588	-0.000022	-1.802173	-2.758833	-2.394255	 119.567900	-2.001539	-89.928640	 40.878790	 44.925460	-29.384390	-30.532320	-0.722256	 31.254690	-17.839770	-12.647950	 25.016360	-1.802536	 11.073480	 1.022020	 13.287640	 30.827210	-7.195284	-8.459511	 9.321032	-0.287148
